<mxfile host="65bd71144e">
    <diagram id="WrSKoHDkt36mXYgP9mdu" name="Page-1">
        <mxGraphModel dx="1863" dy="627" grid="1" gridSize="10" guides="1" tooltips="1" connect="1" arrows="1" fold="1" page="1" pageScale="1" pageWidth="1100" pageHeight="850" math="0" shadow="0">
            <root>
                <mxCell id="0"/>
                <mxCell id="1" parent="0"/>
                <mxCell id="2" value="Catalog Item" style="swimlane;childLayout=stackLayout;horizontal=1;startSize=30;horizontalStack=0;rounded=1;fontSize=14;fontStyle=0;strokeWidth=2;resizeParent=0;resizeLast=1;shadow=0;dashed=0;align=center;" parent="1" vertex="1">
                    <mxGeometry x="-1040" y="200" width="160" height="130" as="geometry"/>
                </mxCell>
                <mxCell id="3" value="Product&#10;Name  _idx&#10;Description&#10;Image&#10;Price  __idx&#10;Visible" style="align=left;strokeColor=none;fillColor=none;spacingLeft=4;fontSize=12;verticalAlign=top;resizable=0;rotatable=0;part=1;" parent="2" vertex="1">
                    <mxGeometry y="30" width="160" height="100" as="geometry"/>
                </mxCell>
                <mxCell id="35" value="Catalog Item Category Rank" style="swimlane;childLayout=stackLayout;horizontal=1;startSize=30;horizontalStack=0;rounded=1;fontSize=14;fontStyle=0;strokeWidth=1;resizeParent=0;resizeLast=1;shadow=1;align=center;swimlaneFillColor=none;strokeColor=default;perimeterSpacing=0;swimlaneLine=1;glass=0;sketch=1;curveFitting=1;jiggle=2;" parent="1" vertex="1">
                    <mxGeometry x="-600" y="120" width="180" height="90" as="geometry"/>
                </mxCell>
                <mxCell id="36" value="Catalog Item&#10;Category  _idx&#10;Rank  _idx" style="align=left;strokeColor=none;fillColor=none;spacingLeft=4;fontSize=12;verticalAlign=top;resizable=0;rotatable=0;part=1;" parent="35" vertex="1">
                    <mxGeometry y="30" width="180" height="60" as="geometry"/>
                </mxCell>
                <mxCell id="41" value="" style="edgeStyle=entityRelationEdgeStyle;fontSize=12;html=1;endArrow=ERoneToMany;startArrow=ERmandOne;entryX=0;entryY=0.5;entryDx=0;entryDy=0;exitX=1.001;exitY=0.439;exitDx=0;exitDy=0;exitPerimeter=0;" parent="1" source="3" target="36" edge="1">
                    <mxGeometry width="100" height="100" relative="1" as="geometry">
                        <mxPoint x="-310" y="365.51" as="sourcePoint"/>
                        <mxPoint x="-300" y="245.51" as="targetPoint"/>
                    </mxGeometry>
                </mxCell>
                <mxCell id="67" value="catalog_item__id == catalog_item_category_rank__id" style="edgeLabel;html=1;align=center;verticalAlign=middle;resizable=0;points=[];fontSize=12;" parent="41" vertex="1" connectable="0">
                    <mxGeometry x="0.1482" y="3" relative="1" as="geometry">
                        <mxPoint x="5" y="8" as="offset"/>
                    </mxGeometry>
                </mxCell>
                <mxCell id="69" value="&lt;font style=&quot;font-size: 28px;&quot;&gt;Catalog&lt;/font&gt;" style="text;html=1;strokeColor=none;fillColor=none;align=center;verticalAlign=middle;whiteSpace=wrap;rounded=0;shadow=1;glass=0;sketch=1;strokeWidth=1;fontSize=28;fontStyle=0;horizontal=1;" parent="1" vertex="1">
                    <mxGeometry x="-620" y="30" width="140" height="50" as="geometry"/>
                </mxCell>
                <mxCell id="109" value="Category" style="swimlane;childLayout=stackLayout;horizontal=1;startSize=30;horizontalStack=0;rounded=1;fontSize=14;fontStyle=0;strokeWidth=2;resizeParent=0;resizeLast=1;shadow=0;align=center;swimlaneFillColor=none;strokeColor=default;perimeterSpacing=0;swimlaneLine=1;glass=0;" parent="1" vertex="1">
                    <mxGeometry x="-270" y="260" width="180" height="60" as="geometry"/>
                </mxCell>
                <mxCell id="110" value="Name" style="align=left;strokeColor=none;fillColor=none;spacingLeft=4;fontSize=12;verticalAlign=top;resizable=0;rotatable=0;part=1;" parent="109" vertex="1">
                    <mxGeometry y="30" width="180" height="30" as="geometry"/>
                </mxCell>
                <mxCell id="112" value="" style="edgeStyle=entityRelationEdgeStyle;fontSize=12;html=1;endArrow=ERoneToMany;startArrow=ERmandOne;entryX=1;entryY=0.25;entryDx=0;entryDy=0;exitX=0;exitY=0;exitDx=0;exitDy=0;" parent="1" source="110" target="36" edge="1">
                    <mxGeometry width="100" height="100" relative="1" as="geometry">
                        <mxPoint x="-280" y="130" as="sourcePoint"/>
                        <mxPoint x="-0.15999999999985448" y="40.49000000000001" as="targetPoint"/>
                    </mxGeometry>
                </mxCell>
                <mxCell id="113" value="category: catalog_item_category_rank__id == category__id" style="edgeLabel;html=1;align=center;verticalAlign=middle;resizable=0;points=[];fontSize=12;" parent="112" vertex="1" connectable="0">
                    <mxGeometry x="0.1482" y="3" relative="1" as="geometry">
                        <mxPoint x="17" y="14" as="offset"/>
                    </mxGeometry>
                </mxCell>
            </root>
        </mxGraphModel>
    </diagram>
</mxfile>